{
  "accessors": [
    {
      "bufferView": 2,
      "componentType": 5126,
      "count": 2870,
      "max": [
        1.73175048828125,
        3.817592144012451,
        1.408021092414856
      ],
      "min": [
        -1.9799736738204956,
        -0.0011339467018842697,
        -1.4080209732055664
      ],
      "type": "VEC3"
    },
    {
      "bufferView": 2,
      "byteOffset": 34440,
      "componentType": 5126,
      "count": 2870,
      "max": [
        0.9992974996566772,
        0.9999998807907104,
        0.9996185302734375
      ],
      "min": [
        -0.9997639656066895,
        -0.9999983310699463,
        -0.9996185302734375
      ],
      "type": "VEC3"
    },
    {
      "bufferView": 1,
      "componentType": 5126,
      "count": 2870,
      "max": [
        0.7663951516151428,
        0.28425776958465576
      ],
      "min": [
        0.7328539490699768,
        0.105778768658638
      ],
      "type": "VEC2"
    },
    {
      "bufferView": 0,
      "componentType": 5125,
      "count": 10068,
      "type": "SCALAR"
    },
    {
      "bufferView": 2,
      "byteOffset": 68880,
      "componentType": 5126,
      "count": 570,
      "max": [
        9.821158409118652,
        8.656745910644531,
        2.5515475273132324
      ],
      "min": [
        7.5341668128967285,
        7.081040859222412,
        1.110375165939331
      ],
      "type": "VEC3"
    },
    {
      "bufferView": 2,
      "byteOffset": 75720,
      "componentType": 5126,
      "count": 570,
      "max": [
        0.9862809181213379,
        0.9962426424026489,
        0.9983684420585632
      ],
      "min": [
        -0.9845114946365356,
        -0.9962426424026489,
        -0.9983684420585632
      ],
      "type": "VEC3"
    },
    {
      "bufferView": 1,
      "byteOffset": 22960,
      "componentType": 5126,
      "count": 570,
      "max": [
        0.5887766480445862,
        0.32036352157592773
      ],
      "min": [
        0.5697409510612488,
        0.0604666993021965
      ],
      "type": "VEC2"
    },
    {
      "bufferView": 0,
      "byteOffset": 40272,
      "componentType": 5125,
      "count": 2304,
      "type": "SCALAR"
    },
    {
      "bufferView": 2,
      "byteOffset": 82560,
      "componentType": 5126,
      "count": 582,
      "max": [
        4.503872394561768,
        9.36182689666748,
        1.0426959991455078
      ],
      "min": [
        2.0510804653167725,
        7.338654041290283,
        -1.0426958799362183
      ],
      "type": "VEC3"
    },
    {
      "bufferView": 2,
      "byteOffset": 89544,
      "componentType": 5126,
      "count": 582,
      "max": [
        0.9845640659332275,
        0.9983805418014526,
        0.9977304935455322
      ],
      "min": [
        -0.9959588646888733,
        -0.9991395473480225,
        -0.9977304935455322
      ],
      "type": "VEC3"
    },
    {
      "bufferView": 1,
      "byteOffset": 27520,
      "componentType": 5126,
      "count": 582,
      "max": [
        0.19906552135944366,
        0.18616820871829987
      ],
      "min": [
        0.17727355659008026,
        0.08734326809644699
      ],
      "type": "VEC2"
    },
    {
      "bufferView": 0,
      "byteOffset": 49488,
      "componentType": 5125,
      "count": 2208,
      "type": "SCALAR"
    },
    {
      "bufferView": 2,
      "byteOffset": 96528,
      "componentType": 5126,
      "count": 570,
      "max": [
        1.1412785053253174,
        0.7875753045082092,
        0.7215679287910461
      ],
      "min": [
        -1.145714521408081,
        -0.7881301045417786,
        -0.7196041941642761
      ],
      "type": "VEC3"
    },
    {
      "bufferView": 2,
      "byteOffset": 103368,
      "componentType": 5126,
      "count": 570,
      "max": [
        0.9862809181213379,
        0.9962426424026489,
        0.9983684420585632
      ],
      "min": [
        -0.9845114946365356,
        -0.9962426424026489,
        -0.9983684420585632
      ],
      "type": "VEC3"
    },
    {
      "bufferView": 1,
      "byteOffset": 32176,
      "componentType": 5126,
      "count": 570,
      "max": [
        0.5887766480445862,
        0.32036352157592773
      ],
      "min": [
        0.5697409510612488,
        0.0604666993021965
      ],
      "type": "VEC2"
    },
    {
      "bufferView": 0,
      "byteOffset": 58320,
      "componentType": 5125,
      "count": 2304,
      "type": "SCALAR"
    }
  ],
  "asset": {
    "extras": {
      "author": "KOMIRA.studio (https://sketchfab.com/komira)",
      "license": "CC-BY-4.0 (http://creativecommons.org/licenses/by/4.0/)",
      "source": "https://sketchfab.com/3d-models/rubberduck-5b20ca71fe4f475e8838420fd66519d2",
      "title": "RubberDuck"
    },
    "generator": "Sketchfab-12.67.0",
    "version": "2.0"
  },
  "bufferViews": [
    {
      "buffer": 0,
      "byteLength": 67536,
      "name": "floatBufferViews",
      "target": 34963
    },
    {
      "buffer": 0,
      "byteLength": 36736,
      "byteOffset": 67536,
      "byteStride": 8,
      "name": "floatBufferViews",
      "target": 34962
    },
    {
      "buffer": 0,
      "byteLength": 110208,
      "byteOffset": 104272,
      "byteStride": 12,
      "name": "floatBufferViews",
      "target": 34962
    }
  ],
  "buffers": [
    {
      "byteLength": 214480,
      "uri": "scene.bin"
    }
  ],
  "images": [
    {
      "uri": "textures/Duck_baseColor.png"
    }
  ],
  "materials": [
    {
      "doubleSided": true,
      "name": "Duck",
      "pbrMetallicRoughness": {
        "baseColorTexture": {
          "index": 0
        },
        "metallicFactor": 0.0929126462,
        "roughnessFactor": 0.4759635554
      }
    }
  ],
  "meshes": [
    {
      "name": "Object_0",
      "primitives": [
        {
          "attributes": {
            "NORMAL": 1,
            "POSITION": 0,
            "TEXCOORD_0": 2
          },
          "indices": 3,
          "material": 0,
          "mode": 4
        }
      ]
    },
    {
      "name": "Object_1",
      "primitives": [
        {
          "attributes": {
            "NORMAL": 5,
            "POSITION": 4,
            "TEXCOORD_0": 6
          },
          "indices": 7,
          "material": 0,
          "mode": 4
        }
      ]
    },
    {
      "name": "Object_2",
      "primitives": [
        {
          "attributes": {
            "NORMAL": 9,
            "POSITION": 8,
            "TEXCOORD_0": 10
          },
          "indices": 11,
          "material": 0,
          "mode": 4
        }
      ]
    },
    {
      "name": "Object_3",
      "primitives": [
        {
          "attributes": {
            "NORMAL": 13,
            "POSITION": 12,
            "TEXCOORD_0": 14
          },
          "indices": 15,
          "material": 0,
          "mode": 4
        }
      ]
    }
  ],
  "nodes": [
    {
      "children": [
        1
      ],
      "matrix": [
        0.14308111369609833,
        0.0,
        0.0,
        0.0,
        0.0,
        3.177038936288364e-17,
        -0.14308111369609833,
        0.0,
        0.0,
        0.14308111369609833,
        3.177038936288364e-17,
        0.0,
        0.0,
        0.0,
        0.0,
        1.0
      ],
      "name": "Sketchfab_model"
    },
    {
      "children": [
        2
      ],
      "name": "root"
    },
    {
      "children": [
        3,
        5,
        7,
        9
      ],
      "matrix": [
        1.0,
        0.0,
        0.0,
        0.0,
        0.0,
        2.220446049250313e-16,
        1.0,
        0.0,
        0.0,
        -1.0,
        2.220446049250313e-16,
        0.0,
        0.0,
        0.0,
        0.0,
        1.0
      ],
      "name": "GLTF_SceneRootNode"
    },
    {
      "children": [
        4
      ],
      "name": "Body_0"
    },
    {
      "mesh": 0,
      "name": "Object_4"
    },
    {
      "children": [
        6
      ],
      "matrix": [
        0.15558195114135742,
        0.0,
        0.0,
        0.0,
        0.0,
        0.3737388551235199,
        0.0,
        0.0,
        0.0,
        0.0,
        0.3080558180809021,
        0.0,
        0.0,
        0.0,
        0.0,
        1.0
      ],
      "name": "R.eye_1"
    },
    {
      "mesh": 1,
      "name": "Object_6"
    },
    {
      "children": [
        8
      ],
      "matrix": [
        0.4351821541786194,
        0.0,
        0.0,
        0.0,
        0.0,
        0.28560349345207214,
        0.0,
        0.0,
        0.0,
        0.0,
        0.8405617475509644,
        0.0,
        0.0,
        0.0,
        0.0,
        1.0
      ],
      "name": "Beak_2"
    },
    {
      "mesh": 2,
      "name": "Object_8"
    },
    {
      "children": [
        10
      ],
      "matrix": [
        0.07663096421722576,
        -0.014844865613700013,
        -0.13458480155278002,
        0.0,
        -0.03010303241072157,
        0.36802357759675863,
        -0.05773374751045558,
        0.0,
        0.26694645492599445,
        0.04490271247676764,
        0.1470432714141201,
        0.0,
        1.3500465154647827,
        2.9410147666931152,
        -0.5657333135604858,
        1.0
      ],
      "name": "L.eye_3"
    },
    {
      "mesh": 3,
      "name": "Object_10"
    }
  ],
  "samplers": [
    {
      "magFilter": 9729,
      "minFilter": 9987,
      "wrapS": 10497,
      "wrapT": 10497
    }
  ],
  "scene": 0,
  "scenes": [
    {
      "name": "Sketchfab_Scene",
      "nodes": [
        0
      ]
    }
  ],
  "textures": [
    {
      "sampler": 0,
      "source": 0
    }
  ]
}
